<?xml version="1.0" encoding="UTF-8" standalone="no"?>
<!-- Created with Inkscape (http://www.inkscape.org/) -->

<svg
   xmlns:dc="http://purl.org/dc/elements/1.1/"
   xmlns:cc="http://creativecommons.org/ns#"
   xmlns:rdf="http://www.w3.org/1999/02/22-rdf-syntax-ns#"
   xmlns:svg="http://www.w3.org/2000/svg"
   xmlns="http://www.w3.org/2000/svg"
   xmlns:sodipodi="http://sodipodi.sourceforge.net/DTD/sodipodi-0.dtd"
   xmlns:inkscape="http://www.inkscape.org/namespaces/inkscape"
   id="svg2"
   version="1.1"
   inkscape:version="0.48.3.1 r9886"
   width="100"
   height="100"
   xml:space="preserve"
   sodipodi:docname="facebook.svg"><metadata
     id="metadata8"><rdf:RDF><cc:Work
         rdf:about=""><dc:format>image/svg+xml</dc:format><dc:type
           rdf:resource="http://purl.org/dc/dcmitype/StillImage" /><dc:title /></cc:Work></rdf:RDF></metadata><defs
     id="defs6" /><sodipodi:namedview
     pagecolor="#ffffff"
     bordercolor="#666666"
     borderopacity="1"
     objecttolerance="10"
     gridtolerance="10"
     guidetolerance="10"
     inkscape:pageopacity="0"
     inkscape:pageshadow="2"
     inkscape:window-width="927"
     inkscape:window-height="480"
     id="namedview4"
     showgrid="false"
     inkscape:zoom="1"
     inkscape:cx="-117.12924"
     inkscape:cy="117.16102"
     inkscape:window-x="575"
     inkscape:window-y="290"
     inkscape:window-maximized="0"
     inkscape:current-layer="g10" /><g
     id="g10"
     inkscape:groupmode="layer"
     inkscape:label="ink_ext_XXXXXX"
     transform="matrix(1.25,0,0,-1.25,0,100)"><g
       id="g12"
       transform="matrix(0.0552088,0,0,0.0552088,1.35384,1.35384)"
       style="fill:#ffffff"><path
         d="m 569.532,151.56 0,514.688 -136.094,0 0,185.312 136.094,0 c 0,0 0,75.938 0,158.281 0,124.379 80.391,238.599 265.63,238.599 75,0 130.46,-7.19 130.46,-7.19 l -4.37,-173.05 c 0,0 -56.56,0.55 -118.28,0.55 -66.8,0 -77.502,-30.784 -77.502,-81.878 0,-40.39 0,86.098 0,-135.312 l 201.092,0 -8.75,-185.312 -192.342,0 0,-514.688 -195.938,0"
         style="fill:#ffffff;fill-opacity:1;fill-rule:nonzero;stroke:none"
         id="path18"
         inkscape:connector-curvature="0" /></g></g></svg>