<?xml version="1.0" encoding="UTF-8" standalone="no"?>
<svg
   xmlns:dc="http://purl.org/dc/elements/1.1/"
   xmlns:cc="http://creativecommons.org/ns#"
   xmlns:rdf="http://www.w3.org/1999/02/22-rdf-syntax-ns#"
   xmlns:svg="http://www.w3.org/2000/svg"
   xmlns="http://www.w3.org/2000/svg"
   xmlns:sodipodi="http://sodipodi.sourceforge.net/DTD/sodipodi-0.dtd"
   xmlns:inkscape="http://www.inkscape.org/namespaces/inkscape"
   version="1.1"
   id="Layer_1"
   x="0px"
   y="0px"
   width="500"
   height="500"
   viewBox="0 0 500.00001 500"
   enable-background="new 0 0 89.365 100"
   xml:space="preserve"
   inkscape:version="0.48.3.1 r9886"
   sodipodi:docname="impressum_nounproject.svg"><metadata
   id="metadata13"><rdf:RDF><cc:Work
       rdf:about=""><dc:format>image/svg+xml</dc:format><dc:type
         rdf:resource="http://purl.org/dc/dcmitype/StillImage" /><dc:title /></cc:Work></rdf:RDF></metadata><defs
   id="defs11" /><sodipodi:namedview
   pagecolor="#ffffff"
   bordercolor="#666666"
   borderopacity="1"
   objecttolerance="10"
   gridtolerance="10"
   guidetolerance="10"
   inkscape:pageopacity="0"
   inkscape:pageshadow="2"
   inkscape:window-width="1301"
   inkscape:window-height="744"
   id="namedview9"
   showgrid="false"
   inkscape:zoom="0.834386"
   inkscape:cx="322.34032"
   inkscape:cy="332.92299"
   inkscape:window-x="65"
   inkscape:window-y="24"
   inkscape:window-maximized="1"
   inkscape:current-layer="Layer_1"
   showguides="true"
   inkscape:guide-bbox="true" />



<rect
   style="fill:#000000;fill-opacity:0.36601311;stroke:none"
   id="rect2985-4"
   width="500"
   height="499.99997"
   x="0"
   y="3.551758e-05" /><g
   id="g2984"
   transform="matrix(4.4760254,0,0,4.0000001,28,49.999995)"
   style="fill:#ffffff"><path
     style="fill:#ffffff"
     sodipodi:nodetypes="ccccccccccccccccccccccccccccc"
     inkscape:connector-curvature="0"
     id="path7"
     d="m 62.926,0 -46.12,0 0,73.894 L 0,89.616001 10.374,100 l 6.433,-6.875 0,1.074 72.558,0 0,-66.744 z m 1.238,12.292 12.454,12.93 -12.453998,-1e-6 z m 17.571002,74.270001 -57.292001,0 0,-1.608 24.765,-26.471001 5.144,5.143 14.349001,-14.362 -17.955001,-17.969 -14.359,14.375 5.117,5.118 -17.061,15.957 0,-59.108001 33.991,0 0,23.307001 23.301001,0 z" /><path
     style="fill:#ffffff"
     id="path3"
     d="m 49.222,26.979 c 0.885,0.873 0.885,2.305 0,3.19 L 35.244,44.134 C 34.371,45.019 32.93,45.019 32.063,44.16 31.171,43.248 31.181,41.829 32.05,40.937 L 46.031,26.979 c 0.886,-0.885 2.305,-0.885 3.191,0 z"
     inkscape:connector-curvature="0" /><path
     style="fill:#ffffff"
     id="path5"
     d="m 55.863,67.942 c 0.885,0.886 2.311,0.886 3.189,0.014 L 73.024,53.977 c 0.892,-0.885 0.886,-2.317 0,-3.203 -0.872,-0.872 -2.305,-0.872 -3.19,0 L 55.863,64.746 c -0.886,0.892 -0.886,2.324 0,3.196 z"
     inkscape:connector-curvature="0" /></g></svg>