<?xml version="1.0" encoding="UTF-8" standalone="no"?>
<svg
   xmlns:dc="http://purl.org/dc/elements/1.1/"
   xmlns:cc="http://creativecommons.org/ns#"
   xmlns:rdf="http://www.w3.org/1999/02/22-rdf-syntax-ns#"
   xmlns:svg="http://www.w3.org/2000/svg"
   xmlns="http://www.w3.org/2000/svg"
   xmlns:sodipodi="http://sodipodi.sourceforge.net/DTD/sodipodi-0.dtd"
   xmlns:inkscape="http://www.inkscape.org/namespaces/inkscape"
   version="1.1"
   id="Layer_1"
   inkscape:version="0.48.3.1 r9886"
   sodipodi:docname="kontakt_nounproject.svg"
   x="0px"
   y="0px"
   width="512"
   height="512"
   viewBox="0 0 512 512"
   enable-background="new 0 0 100 100"
   xml:space="preserve"><metadata
   id="metadata11"><rdf:RDF><cc:Work
       rdf:about=""><dc:format>image/svg+xml</dc:format><dc:type
         rdf:resource="http://purl.org/dc/dcmitype/StillImage" /></cc:Work></rdf:RDF></metadata><defs
   id="defs9" />
<title
   id="title3888">Pushing Button</title>
<sodipodi:namedview
   inkscape:pageopacity="0"
   inkscape:window-height="1056"
   inkscape:pageshadow="2"
   inkscape:window-width="1855"
   id="namedview15"
   inkscape:cy="238.55458"
   inkscape:cx="116.36535"
   inkscape:zoom="1.356381"
   showgrid="false"
   guidetolerance="10"
   gridtolerance="10"
   objecttolerance="10"
   borderopacity="1"
   pagecolor="#ffffff"
   bordercolor="#666666"
   inkscape:window-x="65"
   inkscape:current-layer="Layer_1"
   inkscape:window-maximized="1"
   inkscape:window-y="24"
   fit-margin-top="0"
   fit-margin-left="0"
   fit-margin-right="0"
   fit-margin-bottom="0">
	</sodipodi:namedview>
<g
   id="g5"
   style="fill:#ffffff"
   transform="matrix(5.752809,0,0,6.9858535,-31.64045,-89.803241)">
	<path
   d="m 7.5,17.811 c -1.1,0 -2,0.9 -2,2 V 79.19 c 0,1.1 0.9,2 2,2 h 85 c 1.1,0 2,-0.9 2,-2 V 19.811 c 0,-1.1 -0.9,-2 -2,-2 h -85 z m 72.932,6.742 c 1.1,0 1.316,0.585 0.48,1.3 L 58.43,45.082 c -0.836,0.715 -2.2,1.888 -3.033,2.607 l -2.281,1.971 c -0.833,0.719 -1.9,1.644 -2.373,2.055 -0.473,0.411 -1.246,0.424 -1.719,0.027 C 48.551,51.346 47.487,50.43 46.66,49.704 L 44.361,47.691 C 43.534,46.966 42.173,45.788 41.337,45.073 L 18.854,25.853 c -0.836,-0.715 -0.62,-1.3 0.48,-1.3 h 61.098 z m -68.19,7.002 c 0,-1.1 0.686,-1.417 1.524,-0.705 l 22.012,18.701 c 0.838,0.712 0.818,1.853 -0.045,2.534 L 13.812,69.389 c -0.863,0.682 -1.57,0.339 -1.57,-0.761 V 31.555 z m 7.667,42.892 c -1.1,0 -1.29,-0.554 -0.423,-1.229 l 21.633,-16.87 c 0.867,-0.676 2.257,-0.641 3.089,0.08 l 4.163,3.604 c 0.832,0.721 2.189,0.717 3.018,-0.007 l 4.175,-3.651 c 0.828,-0.724 2.215,-0.762 3.081,-0.084 l 21.639,16.925 c 0.866,0.678 0.675,1.232 -0.425,1.232 h -59.95 z m 69.197,-4.921 c 0,1.1 -0.706,1.442 -1.57,0.761 L 64.476,52.085 C 63.612,51.403 63.591,50.263 64.43,49.551 L 87.581,29.884 c 0.839,-0.712 1.524,-0.395 1.524,0.705 v 38.937 z"
   id="path7"
   style="fill:#ffffff"
   inkscape:connector-curvature="0" />
</g>
</svg>