<?xml version="1.0" encoding="UTF-8" standalone="no"?>
<!-- Created with Inkscape (http://www.inkscape.org/) -->

<svg
   xmlns:dc="http://purl.org/dc/elements/1.1/"
   xmlns:cc="http://creativecommons.org/ns#"
   xmlns:rdf="http://www.w3.org/1999/02/22-rdf-syntax-ns#"
   xmlns:svg="http://www.w3.org/2000/svg"
   xmlns="http://www.w3.org/2000/svg"
   xmlns:sodipodi="http://sodipodi.sourceforge.net/DTD/sodipodi-0.dtd"
   xmlns:inkscape="http://www.inkscape.org/namespaces/inkscape"
   width="500.00003"
   height="66.014679"
   id="svg2"
   version="1.1"
   inkscape:version="0.48.3.1 r9886"
   inkscape:export-filename="/home/niklas/Arbeitsfläche/logo.png"
   inkscape:export-xdpi="90"
   inkscape:export-ydpi="90"
   sodipodi:docname="logo.svg">
  <defs
     id="defs4" />
  <sodipodi:namedview
     id="base"
     pagecolor="#ffffff"
     bordercolor="#666666"
     borderopacity="1.0"
     inkscape:pageopacity="0.0"
     inkscape:pageshadow="2"
     inkscape:zoom="1.2427734"
     inkscape:cx="204.94725"
     inkscape:cy="187.72295"
     inkscape:document-units="px"
     inkscape:current-layer="text2997"
     showgrid="false"
     fit-margin-top="0"
     fit-margin-left="0"
     fit-margin-right="0"
     fit-margin-bottom="0"
     inkscape:window-width="1855"
     inkscape:window-height="1056"
     inkscape:window-x="65"
     inkscape:window-y="24"
     inkscape:window-maximized="1"
     inkscape:showpageshadow="true" />
  <metadata
     id="metadata7">
    <rdf:RDF>
      <cc:Work
         rdf:about="">
        <dc:format>image/svg+xml</dc:format>
        <dc:type
           rdf:resource="http://purl.org/dc/dcmitype/StillImage" />
        <dc:title />
      </cc:Work>
    </rdf:RDF>
  </metadata>
  <g
     inkscape:label="Ebene 1"
     inkscape:groupmode="layer"
     id="layer1"
     transform="translate(-81.032562,-933.24055)">
    <g
       transform="scale(0.99932696,1.0006735)"
       style="font-size:24.46604729px;font-style:normal;font-weight:normal;line-height:125%;letter-spacing:0px;word-spacing:0px;fill:#000000;fill-opacity:1;stroke:none;font-family:Sans"
       id="text2997">
      <g
         id="g2993">
        <path
           id="path2994"
           style="fill:#ffffff"
           d="m 132.17224,997.61383 0,-4.05158 c 0,-0.35231 -2.90657,-1.76155 -6.78199,-1.93771 l -17.61555,-21.31482 14.00437,-14.09244 c 3.78734,0 7.04622,-1.5854 7.04622,-2.02579 l 0,-4.05158 -21.13867,0 0,4.05158 c 0,0.35231 2.11387,1.67348 5.5489,1.93771 l -17.791707,18.2321 0,-41.74886 -4.668122,0 c -6.253515,0 -9.688554,1.76155 -9.688554,2.11387 l 0,4.05157 7.574688,0 0,52.75858 c -4.227729,0 -7.574688,1.5854 -7.574688,2.02579 l 0,4.05158 21.931363,0 0,-4.05158 c 0,-0.44039 -3.258881,-2.02579 -7.574687,-2.02579 l 0,-9.51239 7.662767,-7.1343 13.65205,16.82285 c -3.08272,0.44039 -5.28466,1.49732 -5.28466,1.84963 l 0,4.05158 20.69827,0"
           inkscape:connector-curvature="0" />
        <path
           id="path2996"
           style="fill:#ffffff"
           d="m 179.74111,973.74476 c 0,-17.96785 -3.43505,-24.83793 -22.01944,-24.83793 -18.58439,0 -22.01944,6.87008 -22.01944,24.83793 0,17.96784 3.43505,24.83793 22.01944,24.83793 18.58439,0 22.01944,-6.87009 22.01944,-24.83793 m -6.78198,0 c 0,15.7659 -1.40926,18.49633 -15.23746,18.49633 -13.82819,0 -15.23745,-2.73043 -15.23745,-18.49633 0,-15.67783 1.40926,-18.49634 15.23745,-18.49634 13.8282,0 15.23746,2.81851 15.23746,18.49634"
           inkscape:connector-curvature="0" />
        <path
           id="path2998"
           style="fill:#ffffff"
           d="m 238.82891,997.61383 0,-4.05158 c 0,-0.35231 -2.90657,-1.76155 -6.78199,-1.93771 l -17.61555,-21.31482 14.00436,-14.09244 c 3.78734,0 7.04623,-1.5854 7.04623,-2.02579 l 0,-4.05158 -21.13867,0 0,4.05158 c 0,0.35231 2.11387,1.67348 5.5489,1.93771 l -17.79171,18.2321 0,-41.74886 -4.66812,0 c -6.25351,0 -9.68855,1.76155 -9.68855,2.11387 l 0,4.05157 7.57468,0 0,52.75858 c -4.22772,0 -7.57468,1.5854 -7.57468,2.02579 l 0,4.05158 21.93136,0 0,-4.05158 c 0,-0.44039 -3.25888,-2.02579 -7.57469,-2.02579 l 0,-9.51239 7.66277,-7.1343 13.65205,16.82285 c -3.08272,0.44039 -5.28466,1.49732 -5.28466,1.84963 l 0,4.05158 20.69827,0"
           inkscape:connector-curvature="0" />
        <path
           id="path3000"
           style="fill:#ffffff"
           d="m 291.39758,995.7642 0,-4.05158 -7.57469,0 0,-17.96786 c 0,-17.96785 -3.34697,-24.83793 -20.34596,-24.83793 -6.51775,0 -10.56933,2.02579 -12.06665,4.31581 -0.44039,-1.49732 -0.79271,-2.55426 -1.05694,-3.08273 l -5.02043,0 0,12.94744 5.72505,0 c 0.70463,-5.72505 2.55427,-7.75085 12.41897,-7.75085 11.09779,0 13.12359,2.55427 13.38782,14.09245 l -14.09244,0 c -17.96785,0 -20.87443,6.25352 -20.87443,14.18052 0,8.10314 3.43505,14.97322 20.87443,14.97322 9.16008,0 13.82821,-2.73042 16.03015,-6.69391 l 0.26423,5.98928 1.32117,0 c 7.04621,0 11.00972,-1.76155 11.00972,-2.11386 m -14.2686,-12.15473 c 0,5.81312 -1.14502,8.54354 -14.35667,8.54354 -12.68319,0 -14.00437,-2.73042 -14.00437,-8.54354 0,-5.19659 1.84965,-8.45547 14.00437,-8.45547 l 14.35667,0 0,8.45547"
           inkscape:connector-curvature="0" />
        <path
           id="path3002"
           style="font-size:88.07776642px;font-family:polaris;-inkscape-font-specification:polaris"
           d="m 346.00166,997.61383 0,-4.05158 c 0,-0.35231 -2.90657,-1.76155 -6.78198,-1.93771 l -17.61556,-21.31482 14.00437,-14.09244 c 3.78734,0 7.04622,-1.5854 7.04622,-2.02579 l 0,-4.05158 -21.13867,0 0,4.05158 c 0,0.35231 2.11387,1.67348 5.5489,1.93771 l -17.79171,18.2321 0,-41.74886 -4.66812,0 c -6.25351,0 -9.68855,1.76155 -9.68855,2.11387 l 0,4.05157 7.57469,0 0,52.75858 c -4.22773,0 -7.57469,1.5854 -7.57469,2.02579 l 0,4.05158 21.93136,0 0,-4.05158 c 0,-0.44039 -3.25888,-2.02579 -7.57469,-2.02579 l 0,-9.51239 7.66277,-7.1343 13.65205,16.82285 c -3.08271,0.44039 -5.28466,1.49732 -5.28466,1.84963 l 0,4.05158 20.69827,0"
           inkscape:connector-curvature="0" />
        <path
           id="path3004"
           style="font-size:88.07776642px;font-family:polaris;-inkscape-font-specification:polaris"
           d="m 393.57055,973.74476 c 0,-17.96785 -3.43505,-24.83793 -22.01944,-24.83793 -18.58439,0 -22.01945,6.87008 -22.01945,24.83793 0,17.96784 3.43506,24.83793 22.01945,24.83793 18.58439,0 22.01944,-6.87009 22.01944,-24.83793 m -6.78199,0 c 0,15.7659 -1.40926,18.49633 -15.23745,18.49633 -13.8282,0 -15.23746,-2.73043 -15.23746,-18.49633 0,-15.67783 1.40926,-18.49634 15.23746,-18.49634 13.82819,0 15.23745,2.81851 15.23745,18.49634"
           inkscape:connector-curvature="0" />
        <path
           id="path3006"
           style="font-size:88.07776642px;font-family:polaris;-inkscape-font-specification:polaris"
           d="m 423.50458,997.61383 0,-4.05158 c 0,-0.44039 -3.25888,-2.02579 -7.57468,-2.02579 l 0,-58.92402 -3.34696,0 c -7.04621,0 -11.00972,1.76155 -11.00972,2.11387 l 0,4.05157 7.57469,0 0,52.75858 c -4.22773,0 -7.57469,1.5854 -7.57469,2.02579 l 0,4.05158 21.93136,0"
           inkscape:connector-curvature="0" />
        <path
           id="path3008"
           style="font-size:88.07776642px;font-family:polaris;-inkscape-font-specification:polaris"
           d="m 479.25094,995.7642 0,-4.05158 -7.57468,0 0,-17.96786 c 0,-17.96785 -3.34698,-24.83793 -20.34597,-24.83793 -6.51775,0 -10.56933,2.02579 -12.06665,4.31581 -0.44039,-1.49732 -0.7927,-2.55426 -1.05694,-3.08273 l -5.02043,0 0,12.94744 5.72506,0 c 0.70462,-5.72505 2.55426,-7.75085 12.41896,-7.75085 11.09779,0 13.12359,2.55427 13.38782,14.09245 l -14.09244,0 c -17.96785,0 -20.87443,6.25352 -20.87443,14.18052 0,8.10314 3.43505,14.97322 20.87443,14.97322 9.16008,0 13.82821,-2.73042 16.03015,-6.69391 l 0.26424,5.98928 1.32116,0 c 7.04622,0 11.00972,-1.76155 11.00972,-2.11386 m -14.26859,-12.15473 c 0,5.81312 -1.14503,8.54354 -14.35668,8.54354 -12.68319,0 -14.00436,-2.73042 -14.00436,-8.54354 0,-5.19659 1.84964,-8.45547 14.00436,-8.45547 l 14.35668,0 0,8.45547"
           inkscape:connector-curvature="0" />
        <path
           id="path3010"
           style="font-size:88.07776642px;font-family:polaris;-inkscape-font-specification:polaris"
           d="m 533.85501,997.61383 0,-4.05158 c 0,-0.35231 -2.90657,-1.76155 -6.78199,-1.93771 l -17.61555,-21.31482 14.00436,-14.09244 c 3.78735,0 7.04623,-1.5854 7.04623,-2.02579 l 0,-4.05158 -21.13867,0 0,4.05158 c 0,0.35231 2.11387,1.67348 5.5489,1.93771 l -17.79171,18.2321 0,-41.74886 -4.66812,0 c -6.25351,0 -9.68855,1.76155 -9.68855,2.11387 l 0,4.05157 7.57468,0 0,52.75858 c -4.22772,0 -7.57468,1.5854 -7.57468,2.02579 l 0,4.05158 21.93136,0 0,-4.05158 c 0,-0.44039 -3.25888,-2.02579 -7.57469,-2.02579 l 0,-9.51239 7.66277,-7.1343 13.65205,16.82285 c -3.08272,0.44039 -5.28466,1.49732 -5.28466,1.84963 l 0,4.05158 20.69827,0"
           inkscape:connector-curvature="0" />
        <path
           id="path3012"
           style="font-size:88.07776642px;font-family:polaris;-inkscape-font-specification:polaris"
           d="m 581.42391,973.74476 c 0,-17.96785 -3.43505,-24.83793 -22.01944,-24.83793 -18.58439,0 -22.01944,6.87008 -22.01944,24.83793 0,17.96784 3.43505,24.83793 22.01944,24.83793 18.58439,0 22.01944,-6.87009 22.01944,-24.83793 m -6.78199,0 c 0,15.7659 -1.40925,18.49633 -15.23745,18.49633 -13.8282,0 -15.23745,-2.73043 -15.23745,-18.49633 0,-15.67783 1.40925,-18.49634 15.23745,-18.49634 13.8282,0 15.23745,2.81851 15.23745,18.49634"
           inkscape:connector-curvature="0" />
      </g>
    </g>
  </g>
</svg>
